<svg width="49" height="51" viewBox="0 0 49 51" fill="none" xmlns="http://www.w3.org/2000/svg">
<path fill-rule="evenodd" clip-rule="evenodd" d="M16.8998 42.728H32.2132L31.3577 40.82C31.0674 40.1226 30.806 39.5958 30.5347 38.8797C28.6851 34.0015 27.7227 30.0038 27.7227 24.3057H21.3902C21.3902 28.087 20.9116 31.3867 20.0583 34.3724C19.4601 36.4658 18.3369 39.7236 17.3618 41.6931C17.1904 42.0393 16.9962 42.3124 16.8994 42.7276L16.8998 42.728Z" fill="black"/>
<path fill-rule="evenodd" clip-rule="evenodd" d="M17.1309 8.41524C17.1428 8.9582 17.6671 10.0913 17.8642 10.6758C18.1337 11.4756 18.4307 12.1484 18.7006 12.9482L20.3548 17.3961H28.4145C28.4873 17.084 28.671 16.6522 28.8089 16.2936L30.0437 12.9229C30.2298 12.4229 31.5987 8.89099 31.6381 8.41524C31.2813 8.60385 31.0399 8.71997 30.6683 8.94236C30.2823 9.17355 29.9997 9.26821 29.6154 9.50186C28.4665 10.2004 28.4637 9.76507 27.8212 8.8931L25.8119 6.06675C25.6053 5.75427 25.2732 5.38479 25.1905 5.07619C23.0996 5.07619 23.7192 4.97379 22.3609 6.85216L20.3256 9.66232C19.7257 10.2021 18.5194 9.15033 17.1309 8.41524Z" fill="black"/>
<path fill-rule="evenodd" clip-rule="evenodd" d="M2.27672 44.1073H12.6391C12.7091 43.2677 13.0494 42.8982 13.7904 42.7258C13.6845 42.2715 12.7816 39.953 12.3389 38.19C11.8202 36.1241 11.6028 34.5881 11.6028 32.248H5.1548C5.1548 38.8783 2.63424 42.571 2.27637 44.1073H2.27672Z" fill="black" fill-opacity="0.71"/>
<path fill-rule="evenodd" clip-rule="evenodd" d="M35.207 42.7258C35.9463 42.7874 36.3584 43.2874 36.3584 44.1073H46.8362C44.7354 40.1373 44.2051 36.6065 43.8427 32.248H37.5101C37.5101 35.2683 36.4992 40.0335 35.2074 42.7258H35.207Z" fill="black" fill-opacity="0.71"/>
<path fill-rule="evenodd" clip-rule="evenodd" d="M11.6006 50.7865H37.5072V47.5625H11.6006V50.7865Z" fill="black"/>
<path fill-rule="evenodd" clip-rule="evenodd" d="M3.65733 22.9218C3.65733 24.0201 3.63833 24.3093 4.11724 25.3404C4.37588 25.8974 4.69891 26.2113 5.12329 26.6371C8.75722 30.2808 14.7421 25.9157 12.7177 21.4608C10.4195 16.4042 3.65733 18.576 3.65733 22.9222V22.9218Z" fill="black" fill-opacity="0.71"/>
<path fill-rule="evenodd" clip-rule="evenodd" d="M36.0137 22.9232C36.0137 24.7488 36.2058 25.3502 37.481 26.637C39.2982 28.4711 42.2498 28.3831 44.0493 26.5835C47.1664 23.4665 44.5047 18.5479 41.0798 18.5479H40.389C38.1802 18.5479 36.0137 20.7144 36.0137 22.9232Z" fill="black" fill-opacity="0.71"/>
<path fill-rule="evenodd" clip-rule="evenodd" d="M13.791 46.4108H35.2072V43.8779H13.791V46.4108Z" fill="black"/>
<path fill-rule="evenodd" clip-rule="evenodd" d="M0.204102 48.0222C0.204102 48.2875 0.284332 48.3677 0.549654 48.3677H10.4517C10.4517 46.5854 10.5812 46.4102 12.6394 46.4102V45.2588H0.204453V48.0222H0.204102Z" fill="black" fill-opacity="0.71"/>
<path fill-rule="evenodd" clip-rule="evenodd" d="M36.3584 46.4102H37.2796C38.2237 46.4102 38.6615 46.9781 38.6615 47.9071V48.3677H48.7937V45.2588H36.3587V46.4102H36.3584Z" fill="black" fill-opacity="0.71"/>
<path fill-rule="evenodd" clip-rule="evenodd" d="M19.5461 20.2749H29.5632C30.76 20.2749 30.8349 18.5479 29.6783 18.5479H19.431C18.2466 18.5479 18.3113 20.2749 19.5461 20.2749Z" fill="black"/>
<path fill-rule="evenodd" clip-rule="evenodd" d="M3.65758 30.0609C3.65758 30.7678 4.20547 31.0972 4.92402 31.0972C6.13275 31.0972 11.9128 31.3027 12.6437 30.872C13.5224 30.3544 12.9361 29.1396 12.2929 29.1396H4.57847C4.02143 29.1396 3.65723 29.5039 3.65723 30.0609H3.65758Z" fill="black" fill-opacity="0.71"/>
<path fill-rule="evenodd" clip-rule="evenodd" d="M36.0137 30.0609C36.0137 30.74 36.481 31.0972 37.2801 31.0972H44.3038C45.9101 31.0972 45.5554 29.1396 44.6493 29.1396H36.9349C36.3779 29.1396 36.0137 29.5039 36.0137 30.0609Z" fill="black" fill-opacity="0.71"/>
<path fill-rule="evenodd" clip-rule="evenodd" d="M20.2412 23.1519H28.8765V21.4248H20.2412V23.1519Z" fill="black"/>
<path fill-rule="evenodd" clip-rule="evenodd" d="M22.542 2.08179C22.542 4.75508 26.2266 4.45773 26.2266 2.19686C26.2266 -0.290976 22.542 -0.311386 22.542 2.08179Z" fill="black"/>
</svg>
